#!OML:ASF F:\VICON\USERDATA\INSTALL\rory3\rory3.ASF
:FULLY-SPECIFIED
:DEGREES
185
root 0.7787560678316756 17.92300448808152 39.434264553830864 2.4748955623335265 3.1170893708939875 0.6183538570850091
lfemur -15.82167260769205 2.589249046024333 -19.78223249000733
ltibia 61.280495643418774
lfoot 2.5128140393053418 -11.747274618187916
ltoes -7.724475307722119
rfemur -22.177572918573418 4.84377367703928 28.488795253202827
rtibia 56.48981813556398
rfoot 3.8305652948956266 -4.226097059707468
rtoes 1.766367919023028
lowerback 14.281839678992085 0.03630712213080467 1.588095257200325
upperback -0.8425493631431665 1.6414233161248952 1.5242398371293677
thorax -9.533820231447386 0.48761062419913925 -0.22400283139397414
lowerneck -19.98970317973278 -4.413252760086633 -1.923933239872848
upperneck 15.220509746126245 -7.148821907738968 3.004066532264042
head 8.255404410507289 -2.8257060343930345 0.555766549548333
lclavicle -1.9521729781560437e-15 1.1013548979497733e-15
lhumerus -53.33901470488433 -7.842130929937636 97.3004285519377
lradius 111.98023792481655
lwrist 46.640996300316225
lhand -17.726190901739486 6.5039178146403485
lfingers 7.125020000000001
lthumb 8.467645075661567 36.04946737813657
rclavicle -1.952176533109819e-15 1.1013521049827522e-15
rhumerus -47.16639840199322 14.824901969487264 -101.05205423376323
rradius 113.15362104162239
rwrist -15.512844902182545
rhand -24.102051688867306 -106.59360997606285
rfingers 7.125020000000001
rthumb 3.852714425983708 14.463044700345174
186
root 0.7592673531749708 17.863502995827055 37.102927077070746 2.224164668782621 2.64524528733532 0.3348489822318721
lfemur -16.931849223284125 2.343194627550845 -20.659166414851367
ltibia 59.545406942771365
lfoot 2.412633650734703 -12.832514127030597
ltoes -7.757790297826388
rfemur -21.313390283283184 5.160448550707271 28.751373061298715
rtibia 56.01493916814043
rfoot 3.723800773729281 -4.680921481388223
rtoes 1.1590790548704824
lowerback 14.330079020330468 0.09218064831720424 1.7635102224064692
upperback -0.8561330851126541 1.7334482498188186 1.490474095775741
thorax -9.430517709397206 0.5320792444476644 -0.17769468245889875
lowerneck -20.010862498288777 -4.456779659127474 -1.9357059790366604
upperneck 15.295570704513365 -7.050062003522829 3.0647122415753842
head 8.263075258624545 -2.796461115319622 0.553578665317376
lclavicle -1.9521729781560437e-15 1.1013548979497733e-15
lhumerus -53.62858211577666 -7.8527534099045715 97.23258134462263
lradius 111.68288769429248
lwrist 46.46958341920855
lhand -17.691866824961977 6.466997093759722
lfingers 7.125020000000001
lthumb 8.541382370427952 36.122601541539694
rclavicle -1.952176533109819e-15 1.1013521049827522e-15
rhumerus -47.051835425904 14.962169453499833 -101.11426604751131
rradius 113.20075563680716
rwrist -15.836086149484746
rhand -23.817688164742343 -97.95251644325232
rfingers 7.125020000000001
rthumb 3.804310681236598 14.90329168487741
187
root 0.7683252866479373 17.884715083280778 38.69725633071028 2.3571569209071264 2.920741150015357 0.5193103921857951
lfemur -18.47796018049407 1.827168216029661 -21.446103273846912
ltibia 57.75646520299136
lfoot 2.925500453141911 -13.345131080144807
ltoes -8.079115836229828
rfemur -18.643928970462973 5.821711708264997 29.043069383972252
rtibia 56.705081746920165
rfoot 4.318039052532727 -4.741444816718793
rtoes 1.057535510764205
lowerback 14.269099879536526 0.0777293168342334 1.6749989319119385
upperback -0.8808168354458322 1.7497881187733575 1.3972799200052333
thorax -9.405237332782317 0.572685171786059 -0.18467839148206533
lowerneck -20.020334505971956 -4.516343796523505 -1.9352955905918567
upperneck 15.255129273172921 -7.032117533062589 3.0464034961032085
head 8.271778234181387 -2.7678075696452984 0.5523105725396898
lclavicle -1.9521729781560437e-15 1.1013548979497733e-15
lhumerus -52.633632035256774 -7.262235765067899 97.41841492155437
lradius 111.40886180521585
lwrist 46.61561636920972
lhand -17.741618390331528 6.361770330009188
lfingers 7.125020000000001
lthumb 8.430442258331965 36.0191348693125
rclavicle -1.952176533109819e-15 1.1013521049827522e-15
rhumerus -46.863506134499694 15.149263058394856 -101.16940857784546
rradius 113.18749235919137
rwrist -15.781200278996705
rhand -24.097465696896922 -101.70209415294813
rfingers 7.125020000000001
rthumb 3.607535115116416 14.877118152099474
188
root 0.7559599074796355 17.849244122159977 37.24334096799115 2.240545538649488 2.625039697444252 0.40816395802051586
lfemur -16.482251078072256 2.0650365340437586 -20.95357551105703
ltibia 55.936792017506754
lfoot 2.626765991351092 -12.989864918854591
ltoes -8.083736115117476
rfemur -19.630969102957817 5.722412180167918 28.86046470953447
rtibia 57.353547043172185
rfoot 4.024873170809309 -5.054589695291754
rtoes 0.4161015084213815
lowerback 14.245359480420637 0.08331632046004 1.5905592833288034
upperback -0.8809018554746012 1.7340103629894432 1.3296452320552576
thorax -9.444215957679653 0.5223573299524041 -0.27838114066422476
lowerneck -19.959450925071522 -4.5031112271010105 -1.91122209320866
upperneck 15.300552356256915 -6.922850387250681 3.085222663785145
head 8.293592917398268 -2.7465280859580536 0.5468432751367176
lclavicle -1.9521729781560437e-15 1.1013548979497733e-15
lhumerus -53.97839073695026 -7.7299177158243095 97.28832366325184
lradius 110.98070133755273
lwrist 46.86427942369842
lhand -17.76715808020081 6.388146978501372
lfingers 7.125020000000001
lthumb 8.517877195337206 36.15884443761815
rclavicle -1.952176533109819e-15 1.1013521049827522e-15
rhumerus -46.6721567272711 15.335094818117977 -101.22926572597073
rradius 113.11111365067019
rwrist -15.585717507385432
rhand -24.169204846441186 -104.68563903079055
rfingers 7.125020000000001
rthumb 3.6840677965298543 15.268636993111016
189
root 0.7654760096275862 17.874899766851904 38.90908723365731 2.3170419286277646 2.9964168443372308 0.6151466496299842
lfemur -15.634296037870314 2.0641203702789865 -20.766166375180497
ltibia 53.669423642030914
lfoot 1.1214091156458421 -13.014350630969645
ltoes -8.587460118015084
rfemur -21.664185395827754 5.1371468552014505 28.229926573331866
rtibia 58.32307684832731
rfoot 3.9210264623732627 -5.00811640941501
rtoes 0.20108014178062006
lowerback 14.206613487596517 0.048628712144126784 1.4285578044166003
upperback -0.9257567902313542 1.5865940782663686 1.2006924007879802
thorax -9.47336829125756 0.48388145143082284 -0.4079457236585145
lowerneck -19.968340844687223 -4.571084371934075 -1.9263148719923253
upperneck 15.27526348188922 -6.910264955504113 3.0646077758616705
head 8.308795193940597 -2.7474386178068086 0.5422383919662994
lclavicle -1.9521729781560437e-15 1.1013548979497733e-15
lhumerus -53.72648876474443 -7.657382137580628 97.28847168872817
lradius 110.17985410831056
lwrist 46.58132796038439
lhand -17.76874328327567 6.419402175056773
lfingers 7.125020000000001
lthumb 8.446302670573795 36.04316743111079
rclavicle -1.952176533109819e-15 1.1013521049827522e-15
rhumerus -46.57952181173446 15.46084422708046 -101.30640711481558
rradius 113.04150444387774
rwrist -15.635548756765704
rhand -24.157778184910025 -105.05581159670083
rfingers 7.125020000000001
rthumb 3.5101173614877297 14.996808612236276
190
root 0.7522125143791211 17.82441467816774 37.33384578267917 2.144562776985378 2.762106321433288 0.5079602544737527
lfemur -18.422537712443642 1.5950816122651201 -21.559559255905654
ltibia 51.48412454114253
lfoot 1.5485007491326783 -12.355366161457512
ltoes -8.61526574673349
rfemur -21.41780060109157 4.89653152426606 28.04155736942594
rtibia 60.301672158035124
rfoot 3.6618850227128146 -4.872771924188286
rtoes -0.06805854899445585
lowerback 14.347289675467474 0.09939125511659472 1.531155823693335
upperback -0.9455643664579192 1.4936237986213827 1.1094320030715146
thorax -9.433668327620072 0.489262281318946 -0.392616129628055
lowerneck -19.839629853819424 -4.503218203291392 -1.9016453816455707
upperneck 15.350054025414314 -6.807315883833549 3.1048556127673503
head 8.320358446912937 -2.7386482510929686 0.5440600146935226
lclavicle -1.9521729781560437e-15 1.1013548979497733e-15
lhumerus -53.47951989616504 -7.771396754897408 97.17091530435204
lradius 110.3385757002843
lwrist 46.31373813797419
lhand -17.802986769049298 6.430192656784266
lfingers 7.125020000000001
lthumb 8.47818111413994 36.226721397501684
rclavicle -1.952176533109819e-15 1.1013521049827522e-15
rhumerus -46.57484550645528 15.555649792451105 -101.3841251336758
rradius 112.96068985266686
rwrist -15.631208714376264
rhand -24.12623813584581 -106.70338871860031
rfingers 7.125020000000001
rthumb 3.7907144409500826 15.356393386945758
191
root 0.756833161175122 17.827738339828464 38.016088221417725 2.224630999516044 2.90271981493824 0.5571138044596793
lfemur -16.101379907622253 1.9886294565340017 -20.856610268414492
ltibia 49.72416259709696
lfoot 0.45328211382404315 -12.250656498848302
ltoes -9.354813732611937
rfemur -23.071485188979477 4.2048921246790965 27.633522439463988
rtibia 61.744923691215185
rfoot 3.636347301408872 -4.768405746757718
rtoes -0.4175638601415804
lowerback 14.44774026586837 0.10873083556439656 1.556823839061628
upperback -0.9176989788440972 1.4676452695991056 1.0625105240153914
thorax -9.305931235155079 0.5881401788171603 -0.10605591493623795
lowerneck -19.908944353332398 -4.618404013804206 -1.9240832384258681
upperneck 15.31639145014586 -6.801843943547749 3.074707087003291
head 8.318540075254509 -2.7674058151128507 0.5355453772291872
lclavicle -1.9521729781560437e-15 1.1013548979497733e-15
lhumerus -52.96364879196602 -7.602645687811184 97.17783904319464
lradius 109.51200903331714
lwrist 45.89914944411848
lhand -17.80705083910565 6.496700761720925
lfingers 7.125020000000001
lthumb 8.362098324239113 36.159973182397444
rclavicle -1.952176533109819e-15 1.1013521049827522e-15
rhumerus -46.64600803837537 15.627984552189114 -101.45770114931628
rradius 112.96357525498392
rwrist -15.832827892157082
rhand -24.138143272317386 -106.53057600291943
rfingers 7.125020000000001
rthumb 3.7595739140561775 15.158783122501227
